<svg width="24" height="24" viewBox="0 0 24 24" fill="none" xmlns="http://www.w3.org/2000/svg">
<g clip-path="url(#clip0_14458_12012)">
<path d="M12.82 24H1.324C0.972761 23.9997 0.635999 23.86 0.38773 23.6116C0.13946 23.3631 -1.00029e-07 23.0262 0 22.675L0 1.325C0 0.593 0.593 0 1.325 0H22.675C23.407 0 24 0.593 24 1.325V22.675C24 23.407 23.407 24 22.675 24H16.56V14.706H19.68L20.146 11.084H16.56V8.77C16.56 7.722 16.85 7.007 18.355 7.007H20.273V3.767C19.941 3.722 18.803 3.624 17.478 3.624C14.712 3.624 12.819 5.312 12.819 8.412V11.082H9.692V14.705H12.819V24H12.82Z" fill="#3B5998"/>
</g>
<defs>
<clipPath id="clip0_14458_12012">
<rect width="24" height="24" fill="white"/>
</clipPath>
</defs>
</svg>
