<svg xmlns="http://www.w3.org/2000/svg" version="1.1" viewBox="0.00 0.00 1000.00 1000.00" width="1000.00" height="1000.00">
<g stroke-width="2.00" fill="none" stroke-linecap="butt">
<path stroke="#0d0832" d="&#10;  M 496.89 210.49&#10;  Q 459.58 211.80 424.73 223.79&#10;  Q 414.31 227.38 406.45 231.79&#10;  Q 397.96 236.54 384.73 244.67&#10;  Q 375.34 250.43 368.83 256.70&#10;  Q 359.89 265.29 353.05 274.04&#10;  Q 345.53 283.65 340.38 294.92"/>
<path stroke="#1e062f" d="&#10;  M 340.38 294.92&#10;  Q 333.54 309.76 331.11 326.01"/>
<path stroke="#300b36" d="&#10;  M 331.11 326.01&#10;  Q 326.45 355.75 335.90 384.12&#10;  Q 336.71 386.57 337.65 388.76"/>
<path stroke="#42113e" d="&#10;  M 337.65 388.76&#10;  Q 342.45 400.89 349.74 411.54"/>
<path stroke="#7d2964" d="&#10;  M 349.74 411.54&#10;  Q 361.10 428.86 374.91 441.84&#10;  Q 393.23 459.05 416.57 474.16&#10;  Q 435.53 486.42 467.38 503.36&#10;  Q 497.60 519.44 513.96 528.55&#10;  Q 522.02 533.03 530.78 539.19"/>
<path stroke="#100f3f" d="&#10;  M 530.78 539.19&#10;  Q 532.40 542.69 535.42 545.63&#10;  Q 540.20 550.28 540.63 550.80&#10;  Q 544.08 554.88 546.68 558.58&#10;  Q 558.19 574.95 557.67 595.04&#10;  Q 557.63 596.78 557.11 600.95&#10;  Q 556.76 603.87 556.59 606.89"/>
<path stroke="#0f326c" d="&#10;  M 556.59 606.89&#10;  Q 549.93 632.59 525.62 643.89&#10;  Q 514.39 649.10 502.42 650.08&#10;  Q 479.78 651.94 457.69 645.06&#10;  Q 433.20 637.43 412.81 622.07&#10;  Q 385.85 601.76 367.18 570.25&#10;  Q 366.86 569.72 366.25 569.82&#10;  Q 365.28 569.98 364.34 570.95"/>
<path stroke="#0b275d" d="&#10;  M 364.34 570.95&#10;  L 338.14 586.67"/>
<path stroke="#101549" d="&#10;  M 338.14 586.67&#10;  L 316.42 599.98"/>
<path stroke="#100f3f" d="&#10;  M 316.42 599.98&#10;  L 276.70 624.03&#10;  A 1.03 1.03 0.0 0 0 276.32 625.39&#10;  Q 282.47 637.24 290.99 647.99&#10;  Q 329.29 696.34 383.99 722.68&#10;  Q 392.60 726.82 402.31 730.37&#10;  Q 433.94 741.95 465.26 745.65&#10;  Q 504.71 750.32 544.76 745.77&#10;  Q 560.10 744.02 574.89 740.59"/>
<path stroke="#1e062f" d="&#10;  M 574.89 740.59&#10;  Q 603.84 734.32 629.63 720.39&#10;  Q 630.54 719.89 630.54 719.60"/>
<path stroke="#42113e" d="&#10;  M 630.54 719.60&#10;  Q 641.58 712.62 645.55 709.79&#10;  Q 661.87 698.12 674.48 682.50"/>
<path stroke="#5a1a4c" d="&#10;  M 674.48 682.50&#10;  Q 690.34 662.62 697.59 638.02"/>
<path stroke="#7d2964" d="&#10;  M 697.59 638.02&#10;  Q 707.58 602.47 700.90 566.06&#10;  Q 699.98 561.05 698.53 556.20"/>
<path stroke="#6f2157" d="&#10;  M 698.53 556.20&#10;  Q 692.64 534.43 679.39 516.22"/>
<path stroke="#7d2964" d="&#10;  M 679.39 516.22&#10;  C 666.55 499.31 651.25 484.91 633.69 472.32&#10;  Q 611.30 456.27 588.71 443.89&#10;  Q 554.99 425.41 547.66 421.39&#10;  Q 537.51 415.82 520.46 405.54&#10;  Q 507.94 397.99 496.23 389.27&#10;  C 482.80 379.25 471.91 367.07 467.68 350.74"/>
<path stroke="#101549" d="&#10;  M 467.68 350.74&#10;  Q 465.33 339.70 468.21 328.92&#10;  Q 472.99 310.98 489.53 301.69&#10;  Q 494.01 299.18 499.92 297.40&#10;  Q 519.01 291.67 538.56 296.14&#10;  Q 547.69 298.24 556.33 302.25"/>
<path stroke="#0b275d" d="&#10;  M 556.33 302.25&#10;  Q 575.17 311.87 590.24 327.00"/>
<path stroke="#0f326c" d="&#10;  M 590.24 327.00&#10;  Q 605.08 342.60 615.00 361.62&#10;  A 0.53 0.52 -30.7 0 0 615.76 361.81&#10;  L 680.96 318.20"/>
<path stroke="#0b275d" d="&#10;  M 680.96 318.20&#10;  L 698.34 306.96&#10;  A 0.25 0.24 -34.0 0 0 698.41 306.61&#10;  C 693.67 299.55 689.09 292.25 683.82 285.75&#10;  Q 670.79 269.68 654.79 256.49"/>
<path stroke="#101549" d="&#10;  M 654.79 256.49&#10;  Q 615.94 224.82 566.57 215.21"/>
<path stroke="#100f3f" d="&#10;  M 566.57 215.21&#10;  Q 531.94 208.50 496.89 210.49"/>
<path stroke="#202473" d="&#10;  M 566.57 215.21&#10;  Q 560.64 219.62 554.62 223.81&#10;  Q 545.91 229.88 542.80 232.55&#10;  Q 531.42 242.33 523.59 255.06&#10;  C 519.78 261.26 517.50 268.63 515.10 274.71&#10;  Q 510.97 285.20 503.16 292.18&#10;  Q 501.08 294.03 496.41 296.77&#10;  C 492.56 299.04 486.81 302.18 482.63 305.32&#10;  Q 476.75 309.73 476.25 310.25&#10;  Q 473.22 313.40 469.08 321.32"/>
<path stroke="#1d165c" d="&#10;  M 469.08 321.32&#10;  Q 469.72 305.50 471.06 294.36&#10;  Q 473.31 275.80 479.79 256.35&#10;  Q 485.30 239.84 496.89 210.49"/>
<path stroke="#1a3c91" d="&#10;  M 654.79 256.49&#10;  Q 639.80 256.50 630.24 257.80&#10;  Q 601.93 261.63 578.08 279.66&#10;  Q 566.86 288.14 556.33 302.25"/>
<path stroke="#8d3e97" d="&#10;  M 467.68 350.74&#10;  Q 467.29 350.62 467.12 350.87&#10;  Q 466.79 351.33 466.92 351.93"/>
<path stroke="#1c1d66" d="&#10;  M 469.08 321.32&#10;  Q 468.13 324.02 467.35 326.79&#10;  Q 466.63 329.37 466.38 332.42&#10;  Q 466.10 335.71 465.89 339.00&#10;  Q 465.45 345.66 466.92 351.93"/>
<path stroke="#8a3181" d="&#10;  M 466.92 351.93&#10;  Q 468.82 360.78 473.53 368.12"/>
<path stroke="#3c1353" d="&#10;  M 473.53 368.12&#10;  L 473.29 369.11&#10;  A 0.70 0.69 -62.4 0 1 472.15 369.47&#10;  Q 465.33 363.36 458.74 357.01&#10;  Q 445.43 344.16 434.73 328.97"/>
<path stroke="#2a0d4c" d="&#10;  M 434.73 328.97&#10;  C 431.26 323.49 427.22 317.98 424.40 312.53&#10;  Q 420.52 305.03 417.78 298.91&#10;  Q 417.57 298.44 417.06 298.39&#10;  Q 397.65 296.36 387.73 295.85&#10;  Q 367.88 294.83 340.38 294.92"/>
<path stroke="#1a58b4" d="&#10;  M 680.96 318.20&#10;  Q 667.52 314.83 654.83 313.41&#10;  Q 626.84 310.29 600.93 321.94&#10;  Q 595.57 324.35 590.24 327.00"/>
<path stroke="#ec4aa6" d="&#10;  M 679.39 516.22&#10;  Q 679.37 516.82 679.22 517.06&#10;  A 0.38 0.38 0.0 0 1 678.62 517.09&#10;  Q 673.83 511.54 669.25 506.00&#10;  Q 668.41 504.98 664.63 501.32"/>
<path stroke="#d7439a" d="&#10;  M 664.63 501.32&#10;  Q 649.67 486.82 636.91 477.59&#10;  Q 621.69 466.58 599.11 453.17"/>
<path stroke="#cb3f93" d="&#10;  M 599.11 453.17&#10;  L 552.19 427.42"/>
<path stroke="#bf3a8d" d="&#10;  M 552.19 427.42&#10;  Q 527.45 413.70 508.15 401.10&#10;  Q 501.55 396.80 492.33 389.47"/>
<path stroke="#4d1150" d="&#10;  M 434.73 328.97&#10;  Q 400.82 328.47 366.81 328.01&#10;  Q 352.37 327.81 331.11 326.01"/>
<path stroke="#ad3485" d="&#10;  M 473.53 368.12&#10;  Q 475.94 371.82 478.35 375.40&#10;  Q 482.06 380.92 492.33 389.47"/>
<path stroke="#711c5f" d="&#10;  M 492.33 389.47&#10;  Q 472.43 388.52 457.52 388.85&#10;  Q 394.25 390.25 337.65 388.76"/>
<path stroke="#8f276e" d="&#10;  M 552.19 427.42&#10;  C 529.37 428.62 507.21 427.26 484.68 427.78&#10;  Q 469.18 428.13 453.67 428.50&#10;  Q 436.96 428.90 407.28 427.90&#10;  Q 380.72 427.00 360.39 423.54"/>
<path stroke="#bf3a8d" d="&#10;  M 360.39 423.54&#10;  L 350.77 410.92&#10;  A 0.52 0.52 0.0 0 0 349.88 411.04&#10;  Q 349.80 411.22 349.74 411.54"/>
<path stroke="#c93b8e" d="&#10;  M 664.63 501.32&#10;  Q 639.68 498.92 619.39 499.25&#10;  Q 545.48 500.44 470.97 501.75"/>
<path stroke="#a8307b" d="&#10;  M 599.11 453.17&#10;  Q 589.10 457.10 578.50 457.82&#10;  Q 568.55 458.49 558.19 458.33&#10;  C 520.09 457.73 484.41 458.73 444.94 459.37&#10;  C 426.26 459.68 412.24 459.46 395.29 455.83"/>
<path stroke="#cb3f93" d="&#10;  M 360.39 423.54&#10;  Q 375.93 441.80 395.29 455.83"/>
<path stroke="#d7439a" d="&#10;  M 395.29 455.83&#10;  Q 397.99 458.31 401.11 460.39&#10;  Q 413.70 468.82 426.39 477.09&#10;  Q 433.85 481.95 464.68 498.52&#10;  Q 468.05 500.33 470.97 501.75"/>
<path stroke="#ec4aa6" d="&#10;  M 470.97 501.75&#10;  Q 499.63 517.34 527.31 533.49&#10;  Q 528.11 533.96 530.95 535.74&#10;  Q 543.73 543.77 550.52 547.80&#10;  Q 553.19 549.38 555.21 550.90&#10;  Q 557.49 552.61 560.09 554.02&#10;  Q 560.53 554.26 561.03 554.24&#10;  Q 595.26 553.42 603.77 553.77&#10;  Q 641.49 555.28 679.24 555.68&#10;  Q 688.78 555.79 698.53 556.20"/>
<path stroke="#d7439a" d="&#10;  M 697.59 638.02&#10;  Q 667.65 637.12 637.73 638.04"/>
<path stroke="#9b2f7d" d="&#10;  M 637.73 638.04&#10;  Q 631.40 622.79 620.75 609.50&#10;  Q 600.25 583.93 573.30 565.72"/>
<path stroke="#8d388e" d="&#10;  M 573.30 565.72&#10;  Q 553.52 551.23 530.78 539.19"/>
<path stroke="#782065" d="&#10;  M 637.73 638.04&#10;  Q 646.71 659.63 644.18 683.15"/>
<path stroke="#5f1758" d="&#10;  M 644.18 683.15&#10;  Q 641.55 701.39 631.86 716.36&#10;  Q 630.55 718.39 630.54 719.60"/>
<path stroke="#2e1459" d="&#10;  M 573.30 565.72&#10;  Q 579.47 578.98 586.03 592.02&#10;  Q 592.30 604.51 594.47 610.13&#10;  C 602.82 631.87 606.22 657.66 601.60 679.60&#10;  C 596.92 701.78 586.75 721.21 574.89 740.59"/>
<path stroke="#202473" d="&#10;  M 316.42 599.98&#10;  Q 327.69 634.55 354.03 659.74&#10;  Q 377.42 682.11 407.54 693.37&#10;  Q 433.80 703.20 435.64 703.88&#10;  Q 448.10 708.51 454.55 709.69&#10;  C 474.94 713.45 496.07 708.41 513.52 697.41&#10;  Q 538.59 681.61 545.67 652.66&#10;  Q 548.34 641.77 548.17 627.36"/>
<path stroke="#1f4096" d="&#10;  M 548.17 627.36&#10;  Q 555.46 617.83 557.36 606.21&#10;  Q 557.42 605.82 557.09 606.03&#10;  Q 556.77 606.24 556.59 606.89"/>
<path stroke="#9c2b75" d="&#10;  M 674.48 682.50&#10;  L 644.18 683.15"/>
<path stroke="#1f47a0" d="&#10;  M 548.17 627.36&#10;  Q 541.34 636.32 531.50 642.23&#10;  Q 514.76 652.30 495.24 652.41"/>
<path stroke="#1a58b4" d="&#10;  M 495.24 652.41&#10;  Q 481.96 652.75 469.00 650.40&#10;  C 464.67 649.62 459.85 648.05 456.17 647.08&#10;  Q 451.64 645.87 446.74 643.75&#10;  Q 430.30 636.64 413.98 626.04&#10;  Q 409.34 623.03 405.33 619.76&#10;  Q 399.04 614.64 396.90 612.54&#10;  Q 381.93 597.90 370.36 581.36&#10;  Q 366.94 576.47 364.34 570.95"/>
<path stroke="#1a3c91" d="&#10;  M 495.24 652.41&#10;  Q 481.35 656.52 467.85 661.36&#10;  Q 453.96 666.34 442.49 666.82&#10;  Q 434.87 667.14 427.44 665.97&#10;  C 408.48 662.99 389.42 656.41 374.79 644.12&#10;  Q 353.85 626.53 343.37 601.70&#10;  Q 341.82 598.03 338.14 586.67"/>
</g>
<path fill="#000015" d="&#10;  M 1000.00 0.00&#10;  L 1000.00 1000.00&#10;  L 0.00 1000.00&#10;  L 0.00 0.00&#10;  L 1000.00 0.00&#10;  Z&#10;  M 496.89 210.49&#10;  Q 459.58 211.80 424.73 223.79&#10;  Q 414.31 227.38 406.45 231.79&#10;  Q 397.96 236.54 384.73 244.67&#10;  Q 375.34 250.43 368.83 256.70&#10;  Q 359.89 265.29 353.05 274.04&#10;  Q 345.53 283.65 340.38 294.92&#10;  Q 333.54 309.76 331.11 326.01&#10;  Q 326.45 355.75 335.90 384.12&#10;  Q 336.71 386.57 337.65 388.76&#10;  Q 342.45 400.89 349.74 411.54&#10;  Q 361.10 428.86 374.91 441.84&#10;  Q 393.23 459.05 416.57 474.16&#10;  Q 435.53 486.42 467.38 503.36&#10;  Q 497.60 519.44 513.96 528.55&#10;  Q 522.02 533.03 530.78 539.19&#10;  Q 532.40 542.69 535.42 545.63&#10;  Q 540.20 550.28 540.63 550.80&#10;  Q 544.08 554.88 546.68 558.58&#10;  Q 558.19 574.95 557.67 595.04&#10;  Q 557.63 596.78 557.11 600.95&#10;  Q 556.76 603.87 556.59 606.89&#10;  Q 549.93 632.59 525.62 643.89&#10;  Q 514.39 649.10 502.42 650.08&#10;  Q 479.78 651.94 457.69 645.06&#10;  Q 433.20 637.43 412.81 622.07&#10;  Q 385.85 601.76 367.18 570.25&#10;  Q 366.86 569.72 366.25 569.82&#10;  Q 365.28 569.98 364.34 570.95&#10;  L 338.14 586.67&#10;  L 316.42 599.98&#10;  L 276.70 624.03&#10;  A 1.03 1.03 0.0 0 0 276.32 625.39&#10;  Q 282.47 637.24 290.99 647.99&#10;  Q 329.29 696.34 383.99 722.68&#10;  Q 392.60 726.82 402.31 730.37&#10;  Q 433.94 741.95 465.26 745.65&#10;  Q 504.71 750.32 544.76 745.77&#10;  Q 560.10 744.02 574.89 740.59&#10;  Q 603.84 734.32 629.63 720.39&#10;  Q 630.54 719.89 630.54 719.60&#10;  Q 641.58 712.62 645.55 709.79&#10;  Q 661.87 698.12 674.48 682.50&#10;  Q 690.34 662.62 697.59 638.02&#10;  Q 707.58 602.47 700.90 566.06&#10;  Q 699.98 561.05 698.53 556.20&#10;  Q 692.64 534.43 679.39 516.22&#10;  C 666.55 499.31 651.25 484.91 633.69 472.32&#10;  Q 611.30 456.27 588.71 443.89&#10;  Q 554.99 425.41 547.66 421.39&#10;  Q 537.51 415.82 520.46 405.54&#10;  Q 507.94 397.99 496.23 389.27&#10;  C 482.80 379.25 471.91 367.07 467.68 350.74&#10;  Q 465.33 339.70 468.21 328.92&#10;  Q 472.99 310.98 489.53 301.69&#10;  Q 494.01 299.18 499.92 297.40&#10;  Q 519.01 291.67 538.56 296.14&#10;  Q 547.69 298.24 556.33 302.25&#10;  Q 575.17 311.87 590.24 327.00&#10;  Q 605.08 342.60 615.00 361.62&#10;  A 0.53 0.52 -30.7 0 0 615.76 361.81&#10;  L 680.96 318.20&#10;  L 698.34 306.96&#10;  A 0.25 0.24 -34.0 0 0 698.41 306.61&#10;  C 693.67 299.55 689.09 292.25 683.82 285.75&#10;  Q 670.79 269.68 654.79 256.49&#10;  Q 615.94 224.82 566.57 215.21&#10;  Q 531.94 208.50 496.89 210.49&#10;  Z"/>
<path fill="#201d69" d="&#10;  M 566.57 215.21&#10;  Q 560.64 219.62 554.62 223.81&#10;  Q 545.91 229.88 542.80 232.55&#10;  Q 531.42 242.33 523.59 255.06&#10;  C 519.78 261.26 517.50 268.63 515.10 274.71&#10;  Q 510.97 285.20 503.16 292.18&#10;  Q 501.08 294.03 496.41 296.77&#10;  C 492.56 299.04 486.81 302.18 482.63 305.32&#10;  Q 476.75 309.73 476.25 310.25&#10;  Q 473.22 313.40 469.08 321.32&#10;  Q 469.72 305.50 471.06 294.36&#10;  Q 473.31 275.80 479.79 256.35&#10;  Q 485.30 239.84 496.89 210.49&#10;  Q 531.94 208.50 566.57 215.21&#10;  Z"/>
<path fill="#190f4f" d="&#10;  M 496.89 210.49&#10;  Q 485.30 239.84 479.79 256.35&#10;  Q 473.31 275.80 471.06 294.36&#10;  Q 469.72 305.50 469.08 321.32&#10;  Q 468.13 324.02 467.35 326.79&#10;  Q 466.63 329.37 466.38 332.42&#10;  Q 466.10 335.71 465.89 339.00&#10;  Q 465.45 345.66 466.92 351.93&#10;  Q 468.82 360.78 473.53 368.12&#10;  L 473.29 369.11&#10;  A 0.70 0.69 -62.4 0 1 472.15 369.47&#10;  Q 465.33 363.36 458.74 357.01&#10;  Q 445.43 344.16 434.73 328.97&#10;  C 431.26 323.49 427.22 317.98 424.40 312.53&#10;  Q 420.52 305.03 417.78 298.91&#10;  Q 417.57 298.44 417.06 298.39&#10;  Q 397.65 296.36 387.73 295.85&#10;  Q 367.88 294.83 340.38 294.92&#10;  Q 345.53 283.65 353.05 274.04&#10;  Q 359.89 265.29 368.83 256.70&#10;  Q 375.34 250.43 384.73 244.67&#10;  Q 397.96 236.54 406.45 231.79&#10;  Q 414.31 227.38 424.73 223.79&#10;  Q 459.58 211.80 496.89 210.49&#10;  Z"/>
<path fill="#1f2a7c" d="&#10;  M 566.57 215.21&#10;  Q 615.94 224.82 654.79 256.49&#10;  Q 639.80 256.50 630.24 257.80&#10;  Q 601.93 261.63 578.08 279.66&#10;  Q 566.86 288.14 556.33 302.25&#10;  Q 547.69 298.24 538.56 296.14&#10;  Q 519.01 291.67 499.92 297.40&#10;  Q 494.01 299.18 489.53 301.69&#10;  Q 472.99 310.98 468.21 328.92&#10;  Q 465.33 339.70 467.68 350.74&#10;  Q 467.29 350.62 467.12 350.87&#10;  Q 466.79 351.33 466.92 351.93&#10;  Q 465.45 345.66 465.89 339.00&#10;  Q 466.10 335.71 466.38 332.42&#10;  Q 466.63 329.37 467.35 326.79&#10;  Q 468.13 324.02 469.08 321.32&#10;  Q 473.22 313.40 476.25 310.25&#10;  Q 476.75 309.73 482.63 305.32&#10;  C 486.81 302.18 492.56 299.04 496.41 296.77&#10;  Q 501.08 294.03 503.16 292.18&#10;  Q 510.97 285.20 515.10 274.71&#10;  C 517.50 268.63 519.78 261.26 523.59 255.06&#10;  Q 531.42 242.33 542.80 232.55&#10;  Q 545.91 229.88 554.62 223.81&#10;  Q 560.64 219.62 566.57 215.21&#10;  Z"/>
<path fill="#154da5" d="&#10;  M 654.79 256.49&#10;  Q 670.79 269.68 683.82 285.75&#10;  C 689.09 292.25 693.67 299.55 698.41 306.61&#10;  A 0.25 0.24 -34.0 0 1 698.34 306.96&#10;  L 680.96 318.20&#10;  Q 667.52 314.83 654.83 313.41&#10;  Q 626.84 310.29 600.93 321.94&#10;  Q 595.57 324.35 590.24 327.00&#10;  Q 575.17 311.87 556.33 302.25&#10;  Q 566.86 288.14 578.08 279.66&#10;  Q 601.93 261.63 630.24 257.80&#10;  Q 639.80 256.50 654.79 256.49&#10;  Z"/>
<path fill="#3b0b48" d="&#10;  M 434.73 328.97&#10;  Q 400.82 328.47 366.81 328.01&#10;  Q 352.37 327.81 331.11 326.01&#10;  Q 333.54 309.76 340.38 294.92&#10;  Q 367.88 294.83 387.73 295.85&#10;  Q 397.65 296.36 417.06 298.39&#10;  Q 417.57 298.44 417.78 298.91&#10;  Q 420.52 305.03 424.40 312.53&#10;  C 427.22 317.98 431.26 323.49 434.73 328.97&#10;  Z"/>
<path fill="#1e63c3" d="&#10;  M 680.96 318.20&#10;  L 615.76 361.81&#10;  A 0.53 0.52 -30.7 0 1 615.00 361.62&#10;  Q 605.08 342.60 590.24 327.00&#10;  Q 595.57 324.35 600.93 321.94&#10;  Q 626.84 310.29 654.83 313.41&#10;  Q 667.52 314.83 680.96 318.20&#10;  Z"/>
<path fill="#5f1657" d="&#10;  M 434.73 328.97&#10;  Q 445.43 344.16 458.74 357.01&#10;  Q 465.33 363.36 472.15 369.47&#10;  A 0.70 0.69 -62.4 0 0 473.29 369.11&#10;  L 473.53 368.12&#10;  Q 475.94 371.82 478.35 375.40&#10;  Q 482.06 380.92 492.33 389.47&#10;  Q 472.43 388.52 457.52 388.85&#10;  Q 394.25 390.25 337.65 388.76&#10;  Q 336.71 386.57 335.90 384.12&#10;  Q 326.45 355.75 331.11 326.01&#10;  Q 352.37 327.81 366.81 328.01&#10;  Q 400.82 328.47 434.73 328.97&#10;  Z"/>
<path fill="#fa52b2" d="&#10;  M 467.68 350.74&#10;  C 471.91 367.07 482.80 379.25 496.23 389.27&#10;  Q 507.94 397.99 520.46 405.54&#10;  Q 537.51 415.82 547.66 421.39&#10;  Q 554.99 425.41 588.71 443.89&#10;  Q 611.30 456.27 633.69 472.32&#10;  C 651.25 484.91 666.55 499.31 679.39 516.22&#10;  Q 679.37 516.82 679.22 517.06&#10;  A 0.38 0.38 0.0 0 1 678.62 517.09&#10;  Q 673.83 511.54 669.25 506.00&#10;  Q 668.41 504.98 664.63 501.32&#10;  Q 649.67 486.82 636.91 477.59&#10;  Q 621.69 466.58 599.11 453.17&#10;  L 552.19 427.42&#10;  Q 527.45 413.70 508.15 401.10&#10;  Q 501.55 396.80 492.33 389.47&#10;  Q 482.06 380.92 478.35 375.40&#10;  Q 475.94 371.82 473.53 368.12&#10;  Q 468.82 360.78 466.92 351.93&#10;  Q 466.79 351.33 467.12 350.87&#10;  Q 467.29 350.62 467.68 350.74&#10;  Z"/>
<path fill="#832267" d="&#10;  M 492.33 389.47&#10;  Q 501.55 396.80 508.15 401.10&#10;  Q 527.45 413.70 552.19 427.42&#10;  C 529.37 428.62 507.21 427.26 484.68 427.78&#10;  Q 469.18 428.13 453.67 428.50&#10;  Q 436.96 428.90 407.28 427.90&#10;  Q 380.72 427.00 360.39 423.54&#10;  L 350.77 410.92&#10;  A 0.52 0.52 0.0 0 0 349.88 411.04&#10;  Q 349.80 411.22 349.74 411.54&#10;  Q 342.45 400.89 337.65 388.76&#10;  Q 394.25 390.25 457.52 388.85&#10;  Q 472.43 388.52 492.33 389.47&#10;  Z"/>
<path fill="#fa52b2" d="&#10;  M 360.39 423.54&#10;  Q 375.93 441.80 395.29 455.83&#10;  Q 397.99 458.31 401.11 460.39&#10;  Q 413.70 468.82 426.39 477.09&#10;  Q 433.85 481.95 464.68 498.52&#10;  Q 468.05 500.33 470.97 501.75&#10;  Q 499.63 517.34 527.31 533.49&#10;  Q 528.11 533.96 530.95 535.74&#10;  Q 543.73 543.77 550.52 547.80&#10;  Q 553.19 549.38 555.21 550.90&#10;  Q 557.49 552.61 560.09 554.02&#10;  Q 560.53 554.26 561.03 554.24&#10;  Q 595.26 553.42 603.77 553.77&#10;  Q 641.49 555.28 679.24 555.68&#10;  Q 688.78 555.79 698.53 556.20&#10;  Q 699.98 561.05 700.90 566.06&#10;  Q 707.58 602.47 697.59 638.02&#10;  Q 667.65 637.12 637.73 638.04&#10;  Q 631.40 622.79 620.75 609.50&#10;  Q 600.25 583.93 573.30 565.72&#10;  Q 553.52 551.23 530.78 539.19&#10;  Q 522.02 533.03 513.96 528.55&#10;  Q 497.60 519.44 467.38 503.36&#10;  Q 435.53 486.42 416.57 474.16&#10;  Q 393.23 459.05 374.91 441.84&#10;  Q 361.10 428.86 349.74 411.54&#10;  Q 349.80 411.22 349.88 411.04&#10;  A 0.52 0.52 0.0 0 1 350.77 410.92&#10;  L 360.39 423.54&#10;  Z"/>
<path fill="#9b2b74" d="&#10;  M 552.19 427.42&#10;  L 599.11 453.17&#10;  Q 589.10 457.10 578.50 457.82&#10;  Q 568.55 458.49 558.19 458.33&#10;  C 520.09 457.73 484.41 458.73 444.94 459.37&#10;  C 426.26 459.68 412.24 459.46 395.29 455.83&#10;  Q 375.93 441.80 360.39 423.54&#10;  Q 380.72 427.00 407.28 427.90&#10;  Q 436.96 428.90 453.67 428.50&#10;  Q 469.18 428.13 484.68 427.78&#10;  C 507.21 427.26 529.37 428.62 552.19 427.42&#10;  Z"/>
<path fill="#b43482" d="&#10;  M 664.63 501.32&#10;  Q 639.68 498.92 619.39 499.25&#10;  Q 545.48 500.44 470.97 501.75&#10;  Q 468.05 500.33 464.68 498.52&#10;  Q 433.85 481.95 426.39 477.09&#10;  Q 413.70 468.82 401.11 460.39&#10;  Q 397.99 458.31 395.29 455.83&#10;  C 412.24 459.46 426.26 459.68 444.94 459.37&#10;  C 484.41 458.73 520.09 457.73 558.19 458.33&#10;  Q 568.55 458.49 578.50 457.82&#10;  Q 589.10 457.10 599.11 453.17&#10;  Q 621.69 466.58 636.91 477.59&#10;  Q 649.67 486.82 664.63 501.32&#10;  Z"/>
<path fill="#dd4299" d="&#10;  M 664.63 501.32&#10;  Q 668.41 504.98 669.25 506.00&#10;  Q 673.83 511.54 678.62 517.09&#10;  A 0.38 0.38 0.0 0 0 679.22 517.06&#10;  Q 679.37 516.82 679.39 516.22&#10;  Q 692.64 534.43 698.53 556.20&#10;  Q 688.78 555.79 679.24 555.68&#10;  Q 641.49 555.28 603.77 553.77&#10;  Q 595.26 553.42 561.03 554.24&#10;  Q 560.53 554.26 560.09 554.02&#10;  Q 557.49 552.61 555.21 550.90&#10;  Q 553.19 549.38 550.52 547.80&#10;  Q 543.73 543.77 530.95 535.74&#10;  Q 528.11 533.96 527.31 533.49&#10;  Q 499.63 517.34 470.97 501.75&#10;  Q 545.48 500.44 619.39 499.25&#10;  Q 639.68 498.92 664.63 501.32&#10;  Z"/>
<path fill="#201d69" d="&#10;  M 573.30 565.72&#10;  Q 579.47 578.98 586.03 592.02&#10;  Q 592.30 604.51 594.47 610.13&#10;  C 602.82 631.87 606.22 657.66 601.60 679.60&#10;  C 596.92 701.78 586.75 721.21 574.89 740.59&#10;  Q 560.10 744.02 544.76 745.77&#10;  Q 504.71 750.32 465.26 745.65&#10;  Q 433.94 741.95 402.31 730.37&#10;  Q 392.60 726.82 383.99 722.68&#10;  Q 329.29 696.34 290.99 647.99&#10;  Q 282.47 637.24 276.32 625.39&#10;  A 1.03 1.03 0.0 0 1 276.70 624.03&#10;  L 316.42 599.98&#10;  Q 327.69 634.55 354.03 659.74&#10;  Q 377.42 682.11 407.54 693.37&#10;  Q 433.80 703.20 435.64 703.88&#10;  Q 448.10 708.51 454.55 709.69&#10;  C 474.94 713.45 496.07 708.41 513.52 697.41&#10;  Q 538.59 681.61 545.67 652.66&#10;  Q 548.34 641.77 548.17 627.36&#10;  Q 555.46 617.83 557.36 606.21&#10;  Q 557.42 605.82 557.09 606.03&#10;  Q 556.77 606.24 556.59 606.89&#10;  Q 556.76 603.87 557.11 600.95&#10;  Q 557.63 596.78 557.67 595.04&#10;  Q 558.19 574.95 546.68 558.58&#10;  Q 544.08 554.88 540.63 550.80&#10;  Q 540.20 550.28 535.42 545.63&#10;  Q 532.40 542.69 530.78 539.19&#10;  Q 553.52 551.23 573.30 565.72&#10;  Z"/>
<path fill="#3b0b48" d="&#10;  M 637.73 638.04&#10;  Q 646.71 659.63 644.18 683.15&#10;  Q 641.55 701.39 631.86 716.36&#10;  Q 630.55 718.39 630.54 719.60&#10;  Q 630.54 719.89 629.63 720.39&#10;  Q 603.84 734.32 574.89 740.59&#10;  C 586.75 721.21 596.92 701.78 601.60 679.60&#10;  C 606.22 657.66 602.82 631.87 594.47 610.13&#10;  Q 592.30 604.51 586.03 592.02&#10;  Q 579.47 578.98 573.30 565.72&#10;  Q 600.25 583.93 620.75 609.50&#10;  Q 631.40 622.79 637.73 638.04&#10;  Z"/>
<path fill="#1e63c3" d="&#10;  M 556.59 606.89&#10;  Q 556.77 606.24 557.09 606.03&#10;  Q 557.42 605.82 557.36 606.21&#10;  Q 555.46 617.83 548.17 627.36&#10;  Q 541.34 636.32 531.50 642.23&#10;  Q 514.76 652.30 495.24 652.41&#10;  Q 481.96 652.75 469.00 650.40&#10;  C 464.67 649.62 459.85 648.05 456.17 647.08&#10;  Q 451.64 645.87 446.74 643.75&#10;  Q 430.30 636.64 413.98 626.04&#10;  Q 409.34 623.03 405.33 619.76&#10;  Q 399.04 614.64 396.90 612.54&#10;  Q 381.93 597.90 370.36 581.36&#10;  Q 366.94 576.47 364.34 570.95&#10;  Q 365.28 569.98 366.25 569.82&#10;  Q 366.86 569.72 367.18 570.25&#10;  Q 385.85 601.76 412.81 622.07&#10;  Q 433.20 637.43 457.69 645.06&#10;  Q 479.78 651.94 502.42 650.08&#10;  Q 514.39 649.10 525.62 643.89&#10;  Q 549.93 632.59 556.59 606.89&#10;  Z"/>
<path fill="#154da5" d="&#10;  M 364.34 570.95&#10;  Q 366.94 576.47 370.36 581.36&#10;  Q 381.93 597.90 396.90 612.54&#10;  Q 399.04 614.64 405.33 619.76&#10;  Q 409.34 623.03 413.98 626.04&#10;  Q 430.30 636.64 446.74 643.75&#10;  Q 451.64 645.87 456.17 647.08&#10;  C 459.85 648.05 464.67 649.62 469.00 650.40&#10;  Q 481.96 652.75 495.24 652.41&#10;  Q 481.35 656.52 467.85 661.36&#10;  Q 453.96 666.34 442.49 666.82&#10;  Q 434.87 667.14 427.44 665.97&#10;  C 408.48 662.99 389.42 656.41 374.79 644.12&#10;  Q 353.85 626.53 343.37 601.70&#10;  Q 341.82 598.03 338.14 586.67&#10;  L 364.34 570.95&#10;  Z"/>
<path fill="#1f2a7c" d="&#10;  M 338.14 586.67&#10;  Q 341.82 598.03 343.37 601.70&#10;  Q 353.85 626.53 374.79 644.12&#10;  C 389.42 656.41 408.48 662.99 427.44 665.97&#10;  Q 434.87 667.14 442.49 666.82&#10;  Q 453.96 666.34 467.85 661.36&#10;  Q 481.35 656.52 495.24 652.41&#10;  Q 514.76 652.30 531.50 642.23&#10;  Q 541.34 636.32 548.17 627.36&#10;  Q 548.34 641.77 545.67 652.66&#10;  Q 538.59 681.61 513.52 697.41&#10;  C 496.07 708.41 474.94 713.45 454.55 709.69&#10;  Q 448.10 708.51 435.64 703.88&#10;  Q 433.80 703.20 407.54 693.37&#10;  Q 377.42 682.11 354.03 659.74&#10;  Q 327.69 634.55 316.42 599.98&#10;  L 338.14 586.67&#10;  Z"/>
<path fill="#b43482" d="&#10;  M 697.59 638.02&#10;  Q 690.34 662.62 674.48 682.50&#10;  L 644.18 683.15&#10;  Q 646.71 659.63 637.73 638.04&#10;  Q 667.65 637.12 697.59 638.02&#10;  Z"/>
<path fill="#832267" d="&#10;  M 674.48 682.50&#10;  Q 661.87 698.12 645.55 709.79&#10;  Q 641.58 712.62 630.54 719.60&#10;  Q 630.55 718.39 631.86 716.36&#10;  Q 641.55 701.39 644.18 683.15&#10;  L 674.48 682.50&#10;  Z"/>
</svg>